<?xml version="1.0" encoding="UTF-8" standalone="no"?>
<svg
   xmlns:dc="http://purl.org/dc/elements/1.1/"
   xmlns:cc="http://creativecommons.org/ns#"
   xmlns:rdf="http://www.w3.org/1999/02/22-rdf-syntax-ns#"
   xmlns:svg="http://www.w3.org/2000/svg"
   xmlns="http://www.w3.org/2000/svg"
   xmlns:sodipodi="http://sodipodi.sourceforge.net/DTD/sodipodi-0.dtd"
   xmlns:inkscape="http://www.inkscape.org/namespaces/inkscape"
   version="1.1"
   id="svg46"
   width="447.34576"
   height="450"
   viewBox="0 0 447.34575 450"
   sodipodi:docname="boob.svg"
   inkscape:version="1.0.2 (e86c8708, 2021-01-15)">
  <metadata
     id="metadata52">
    <rdf:RDF>
      <cc:Work
         rdf:about="">
        <dc:format>image/svg+xml</dc:format>
        <dc:type
           rdf:resource="http://purl.org/dc/dcmitype/StillImage" />
        <dc:title></dc:title>
      </cc:Work>
    </rdf:RDF>
  </metadata>
  <defs
     id="defs50">
    <clipPath
       clipPathUnits="userSpaceOnUse"
       id="clipPath60">
      <rect
         style="opacity:0.5;fill:#0000ff;fill-rule:evenodd"
         id="rect62"
         width="793.26318"
         height="404.21054"
         x="-96"
         y="924.63159" />
    </clipPath>
  </defs>
  <sodipodi:namedview
     pagecolor="#ffffff"
     bordercolor="#666666"
     borderopacity="1"
     objecttolerance="10"
     gridtolerance="10"
     guidetolerance="10"
     inkscape:pageopacity="0"
     inkscape:pageshadow="2"
     inkscape:window-width="1280"
     inkscape:window-height="800"
     id="namedview48"
     showgrid="false"
     inkscape:pagecheckerboard="true"
     inkscape:snap-global="true"
     inkscape:zoom="0.60830864"
     inkscape:cx="6.6913834"
     inkscape:cy="101.81607"
     inkscape:window-x="0"
     inkscape:window-y="0"
     inkscape:window-maximized="0"
     inkscape:current-layer="layer3"
     fit-margin-top="0"
     fit-margin-left="0"
     fit-margin-right="0"
     fit-margin-bottom="0" />
  <g
     inkscape:groupmode="layer"
     inkscape:label="Image"
     id="g54"
     transform="translate(-477.18353,-130.88448)">
    <path
       style="fill:none;stroke-width:1.33333"
       d="m 1040.8755,654.92664 c 42.4079,-9.68583 75.2951,-44.83136 83.0803,-88.78542 1.0542,-5.95218 1.4305,-15.23369 0.9999,-24.66666 -1.4437,-31.62642 -16.0781,-60.29919 -40.8734,-80.08215 -43.6978,-34.86421 -104.68272,-32.32721 -145.06804,6.03491 -55.92713,53.12529 -42.1609,144.6741 26.96256,179.30766 23.03875,11.54326 48.18338,14.29336 74.89868,8.19166 z"
       id="path178" />
  </g>
  <g
     inkscape:groupmode="layer"
     id="layer1"
     inkscape:label="Image 1"
     style="display:inline"
     transform="translate(-477.18353,-130.88448)" />
  <g
     inkscape:groupmode="layer"
     id="layer3"
     inkscape:label="outline"
     transform="translate(-477.18353,-130.88448)">
    <g
       id="g1165"
       transform="matrix(1.7141676,0,0,1.7141676,-340.78902,-93.473456)">
      <g
         id="g298"
         transform="translate(-40.608475,-10.224113)"
         style="display:inline;fill:#ffcce3;fill-opacity:1">
        <g
           id="g1140"
           style="fill:#ffcce3;fill-opacity:1"
           transform="matrix(1,0,0,1.0334211,-298.58733,13.843948)">
          <ellipse
             style="opacity:1;fill:#ffcce3;fill-opacity:1;stroke:none;stroke-width:1.60648"
             id="ellipse1138"
             cx="947.00861"
             cy="249.85182"
             rx="113.74327"
             ry="113.10427" />
        </g>
      </g>
      <path
         id="path176"
         style="display:inline;opacity:1;fill:#f298b5;fill-opacity:1;stroke:none;stroke-width:1.33333"
         d="m 609.69134,130.88781 c -12.46761,-0.0788 -25.84361,1.2432 -35.3418,3.78516 -23.25552,6.22379 -45.83854,19.69846 -62.35156,37.20313 -11.0391,11.70204 -15.65238,18.47135 -23.01562,33.77148 -9.81675,20.39828 -11.79883,29.86726 -11.79883,56.36523 0,25.92111 1.84104,35.08825 10.95508,54.53711 7.18853,15.33992 14.91042,26.36549 26.77734,38.23242 19.64981,19.64984 42.52284,31.62615 69.87891,36.58985 57.52934,10.4385 115.85823,-20.13418 141.52343,-74.17774 7.9521,-16.745 11.68258,-33.71905 11.83008,-53.84765 0.0705,-9.61553 -0.63679,-20.89606 -1.58789,-25.33399 -11.9021,-55.53643 -51.8683,-95.12324 -106.4414,-105.43164 -5.79255,-1.09416 -12.94717,-1.64608 -20.42774,-1.69336 z m -2.92383,21.16602 c 22.5797,0 30.74615,1.62765 47.21485,9.40625 69.32739,32.74502 85.62538,123.5969 31.90039,177.82422 -14.1357,14.2679 -29.09279,23.12325 -48.61719,28.78125 -13.2577,3.8419 -33.66175,5.27151 -46.49805,3.25781 -35.1514,-5.5143 -66.88313,-28.80035 -82.58593,-60.60352 -8.2955,-16.801 -10.74779,-28.13228 -10.67579,-49.33203 0.0708,-20.8729 1.8123,-29.45893 9.2461,-45.5664 13.5319,-29.32056 38.1372,-50.61768 70.0625,-60.64258 8.5889,-2.69699 12.69442,-3.125 29.95312,-3.125 z" />
      <path
         id="path180"
         style="display:inline;opacity:1;fill:#f298b5;fill-opacity:1;stroke:none;stroke-width:1.33333"
         d="m 608.92194,235.31934 c -2.7588,-0.004 -5.5418,0.22619 -8.3262,0.70313 -42.56177,7.2905 -58.78952,59.36293 -27.59372,88.54296 7.5822,7.09232 10.34937,8.7309 20.38862,12.07813 5.4335,1.81161 10.0107,2.30069 17.6661,1.88867 19.4618,-1.04748 35.6355,-12.00253 44.1015,-29.87305 3.8305,-8.08564 4.2325,-10.13806 4.2325,-21.60156 0,-11.46351 -0.402,-13.51592 -4.2325,-21.60156 -8.8155,-18.60844 -26.9246,-30.10845 -46.2363,-30.13672 z m -1.7695,10.49609 c 14.9419,-0.3741 30.0119,7.10271 37.7637,22.61524 3.5595,7.12321 4.1464,9.74587 4.1464,18.53711 0,8.76157 -0.5916,11.42321 -4.0918,18.42773 -4.8579,9.72149 -12.3429,16.54517 -22.1875,20.22852 -7.2861,2.72605 -19.2899,3.39487 -25.7207,1.43164 -11.63058,-3.55071 -21.94328,-12.5257 -26.90818,-23.41992 -2.2994,-5.04553 -3.03711,-9.09968 -3.03711,-16.66797 0,-7.5683 0.73771,-11.62049 3.03711,-16.66602 7.24065,-15.88788 22.05608,-24.11223 36.99808,-24.48633 z" />
      <path
         style="display:inline;opacity:1;fill:#f298b5;fill-opacity:1;stroke-width:1.33333"
         d="m 600.94198,310.34758 c -5.9893,-2.7389 -8.918,-6.77005 -9.5462,-13.13942 -0.6858,-6.95426 1.4151,-11.29436 7.4295,-15.34742 8.5004,-5.72842 18.7496,-2.46966 23.0894,7.34136 2.4819,5.61063 2.5028,6.19492 0.4178,11.65454 -3.4976,9.15818 -12.9484,13.35152 -21.3905,9.49094 z"
         id="path184" />
    </g>
    <g
       id="g1180"
       transform="matrix(1.7421752,0,0,1.7421752,-351.02637,-384.46991)"
       style="opacity:1">
      <g
         id="g1146"
         transform="matrix(1,0,0,1.0549784,-339.23389,-15.730606)"
         style="display:inline;fill:#ffcce3;fill-opacity:1">
        <g
           id="g1144"
           style="fill:#ffcce3;fill-opacity:1"
           transform="matrix(1,0,0,1.0334211,-298.58733,13.843948)">
          <ellipse
             style="opacity:1;fill:#ffcce3;fill-opacity:1;stroke:none;stroke-width:1.60648"
             id="ellipse1142"
             cx="947.00861"
             cy="249.85182"
             rx="113.74327"
             ry="113.10427" />
        </g>
      </g>
      <g
         id="g289"
         transform="translate(-36.00617,1.3605242)"
         style="opacity:1;fill:#f298b5;fill-opacity:1">
        <g
           id="g280"
           transform="translate(-338.52632,-285.47368)"
           style="fill:#f298b5;fill-opacity:1">
          <path
             style="fill:#f298b5;fill-opacity:1;stroke-width:1.33333"
             d="m 677.69713,595.7387 c -11.58412,-5.03884 -12.47948,-22.00164 -1.5142,-28.68698 7.98623,-4.86907 17.49511,-2.45784 22.46754,5.69722 5.07424,8.32203 1.56307,19.2815 -7.37368,23.01551 -5.62765,2.35137 -8.12561,2.34664 -13.57966,-0.0257 z"
             id="path272" />
          <path
             style="fill:#f298b5;fill-opacity:1;stroke-width:1.33333"
             d="m 661.49972,618.28737 c -10.89805,-5.45207 -18.8608,-13.58452 -24.0898,-24.60316 -3.06467,-6.45795 -3.48009,-9.00453 -3.48009,-21.33333 0,-12.59052 0.37089,-14.75495 3.68401,-21.49866 5.75,-11.70389 13.08659,-19.08141 24.66727,-24.80489 9.51028,-4.70024 10.96786,-5.02935 22.24624,-5.02315 10.76991,0.005 13.02789,0.46014 20.97529,4.21936 11.90826,5.63276 20.11579,13.46003 25.42728,24.24919 4.05811,8.2432 4.33324,9.69455 4.33324,22.85815 0,13.19053 -0.26934,14.6032 -4.37409,22.94113 -6.53373,13.27188 -20.39427,24.61253 -33.21543,27.17677 -3.70504,0.741 -4.43729,0.36448 -6.30134,-3.24018 -2.75211,-5.322 -2.80148,-5.18282 2.2242,-6.2694 12.11906,-2.6202 24.03012,-12.51786 29.41776,-24.44512 3.85494,-8.53412 3.85494,-23.79228 0,-32.3264 -11.76587,-26.04748 -44.74304,-33.30378 -66.06363,-14.53663 -6.36912,5.60632 -12.11466,16.65607 -13.66073,26.27216 -1.11019,6.90501 1.98343,19.71796 6.481,26.84257 5.14212,8.14564 14.42119,14.82863 25.15756,18.119 2.20182,0.6748 2.20664,0.97751 0.0864,5.42372 -1.23507,2.58998 -2.65384,4.70904 -3.15283,4.70904 -0.49898,0 -5.16202,-2.12857 -10.3623,-4.73017 z"
             id="path274" />
          <path
             style="fill:#f298b5;fill-opacity:1;stroke-width:1.33333"
             d="m 639.57984,670.99344 c -41.06956,-15.0759 -71.73181,-49.56862 -82.6219,-92.94347 -4.23483,-16.86717 -4.18006,-45.63941 0.11738,-61.66969 12.81445,-47.80034 45.30975,-81.2393 92.85451,-95.55096 10.89602,-3.27987 14.02395,-3.61782 34,-3.67344 18.90244,-0.0527 23.59572,0.37028 33.33333,3.0037 43.12685,11.66316 77.44827,43.4694 91.56845,84.85796 23.11585,67.75647 -12.24094,141.50763 -79.63025,166.1017 -6.02305,2.1981 -11.11006,3.8245 -11.30448,3.6141 -0.76125,-0.8237 -7.30038,-17.0353 -7.30038,-18.0988 0,-0.6215 3.45,-2.2035 7.66666,-3.51549 19.03379,-5.92239 39.27586,-19.74451 52.29067,-35.70621 8.59834,-10.54524 17.90014,-29.17363 21.50232,-43.06196 3.86184,-14.88947 3.84659,-38.55384 -0.0344,-53.33334 -7.36358,-28.04186 -23.93245,-51.12948 -47.75072,-66.53744 -32.70748,-21.15836 -72.0837,-23.39268 -107.67453,-6.10976 -28.25472,13.72051 -46.65078,34.82448 -57.51436,65.98054 -3.45861,9.91906 -3.72277,12.16186 -3.76913,32 -0.0572,24.45768 1.43773,31.87289 9.99233,49.56588 12.46042,25.77117 35.5576,46.42629 62.64385,56.02053 l 10.31232,3.65275 -3.26264,8.7137 c -1.79446,4.7926 -3.66909,9.1132 -4.16585,9.6014 -0.49675,0.4882 -5.56069,-0.822 -11.25318,-2.9117 z"
             id="path276" />
          <path
             style="fill:#f298b5;fill-opacity:1;stroke:#ffe6d5;stroke-width:20;stroke-miterlimit:4;stroke-dasharray:none"
             d="m 675.44618,715.06444 c -10.18771,-3.6318 -18.10095,-14.6986 -18.14789,-25.3802 -0.0386,-8.781 22.24244,-68.55676 25.58596,-68.64228 1.17076,-0.03 19.32585,37.12488 24.41971,49.97558 6.96394,17.5684 5.54039,29.2497 -4.691,38.4932 -7.93412,7.168 -17.27944,9.0785 -27.16678,5.5537 z"
             id="path278" />
          <path
             style="fill:#ffffff;fill-opacity:1;stroke:#ffffff;stroke-width:1.333;stroke-miterlimit:4;stroke-dasharray:none"
             d="m 675.44618,715.06444 c -10.18771,-3.6318 -18.10095,-14.6986 -18.14789,-25.3802 -0.0386,-8.781 22.24244,-68.55676 25.58596,-68.64228 1.17076,-0.03 19.32585,37.12488 24.41971,49.97558 6.96394,17.5684 5.54039,29.2497 -4.691,38.4932 -7.93412,7.168 -17.27944,9.0785 -27.16678,5.5537 z"
             id="path1154" />
        </g>
      </g>
    </g>
  </g>
</svg>
